<svg width="21" height="20" fill="none" xmlns="http://www.w3.org/2000/svg"><path d="M3.222 8a8.047 8.047 0 000 4H6.07a19.83 19.83 0 010-4H3.222zm.818-2h2.346c.266-1.217.65-2.307 1.121-3.214A8.035 8.035 0 004.04 6zm14.678 2H15.87c.135 1.33.135 2.67 0 4h2.848a8.046 8.046 0 000-4zM17.9 6a8.035 8.035 0 00-3.467-3.214c.472.907.855 1.997 1.121 3.214H17.9zM8.082 8a17.765 17.765 0 000 4h5.776c.15-1.33.15-2.67 0-4H8.082zm.358-2h5.06a10.759 10.759 0 00-.783-2.177C12.09 2.568 11.417 2 10.97 2c-.448 0-1.119.568-1.747 1.823-.315.632-.58 1.367-.783 2.177zm-4.4 8a8.035 8.035 0 003.467 3.214c-.472-.907-.855-1.997-1.12-3.214H4.04zm13.86 0h-2.346c-.266 1.217-.65 2.307-1.12 3.214A8.035 8.035 0 0017.9 14zm-9.46 0c.203.81.468 1.545.783 2.177.628 1.255 1.3 1.823 1.747 1.823.448 0 1.12-.568 1.747-1.823.315-.632.58-1.367.783-2.177H8.44zm2.53 6c-5.523 0-10-4.477-10-10s4.477-10 10-10 10 4.477 10 10-4.477 10-10 10z" fill="#7E8DA3"/></svg>