<svg width="118" height="38" xmlns="http://www.w3.org/2000/svg"><g fill="none"><path d="M113.208 38H4.354C1.916 38 0 35.91 0 33.25V4.75C0 2.09 1.916 0 4.354 0h108.854c2.439 0 4.354 2.09 4.354 4.75v28.5c0 2.565-1.915 4.75-4.354 4.75z" fill="#000"/><path d="M113.208.76c2.003 0 3.658 1.805 3.658 3.99v28.5c0 2.185-1.655 3.99-3.658 3.99H4.354c-2.003 0-3.657-1.805-3.657-3.99V4.75C.697 2.565 2.35.76 4.354.76h108.854zm0-.76H4.354C1.916 0 0 2.09 0 4.75v28.5C0 35.91 1.916 38 4.354 38h108.854c2.439 0 4.354-2.09 4.354-4.75V4.75c0-2.565-1.915-4.75-4.354-4.75z" fill="#A6A6A6"/><path d="M61.83 12.232c-2.007 0-3.536 1.53-3.536 3.536a3.528 3.528 0 003.535 3.536c2.007 0 3.536-1.53 3.536-3.536.096-2.007-1.529-3.536-3.536-3.536zm0 5.734c-1.052 0-2.007-.86-2.007-2.198 0-1.242.955-2.198 2.006-2.198 1.052 0 2.007.86 2.007 2.198 0 1.242-.86 2.198-2.007 2.198zm-7.741-5.734c-2.007 0-3.536 1.53-3.536 3.536a3.528 3.528 0 003.536 3.536 3.528 3.528 0 003.536-3.536 3.528 3.528 0 00-3.536-3.536zm0 5.734c-1.051 0-2.007-.86-2.007-2.198 0-1.242.956-2.198 2.007-2.198 1.051 0 2.007.86 2.007 2.198 0 1.242-.956 2.198-2.007 2.198zm-9.27-4.683v1.53h3.631c-.095.86-.382 1.433-.86 1.91a3.763 3.763 0 01-2.771 1.147c-2.198 0-3.918-1.815-3.918-4.013s1.72-4.014 3.918-4.014c1.242 0 2.102.478 2.676 1.051l1.051-1.051c-.86-.86-2.102-1.529-3.823-1.529-3.058 0-5.638 2.485-5.638 5.543 0 3.058 2.58 5.542 5.638 5.542 1.625 0 2.867-.573 3.823-1.529.956-.955 1.338-2.389 1.338-3.536 0-.382 0-.668-.096-.955H44.82v-.096zm37.843 1.243c-.286-.765-1.242-2.294-3.058-2.294-1.815 0-3.344 1.434-3.344 3.536 0 2.007 1.529 3.536 3.535 3.536 1.625 0 2.58-.956 2.963-1.53l-1.242-.764c-.383.574-.956.956-1.72.956-.765 0-1.338-.382-1.72-1.051l4.777-2.007-.19-.382zm-4.873 1.146c0-1.338 1.05-2.102 1.815-2.102.574 0 1.147.287 1.338.764l-3.153 1.338zm-3.823 3.44h1.53V8.697h-1.53v10.417zm-2.58-6.115a2.724 2.724 0 00-1.911-.765c-1.816 0-3.44 1.53-3.44 3.536 0 2.007 1.624 3.536 3.44 3.536.86 0 1.529-.382 1.91-.765h.096v.478c0 1.338-.764 2.103-1.91 2.103-.957 0-1.53-.67-1.817-1.243l-1.338.574a3.369 3.369 0 003.154 2.102c1.816 0 3.345-1.051 3.345-3.727v-6.403H71.48v.574h-.095zm-1.816 4.969c-1.051 0-2.007-.86-2.007-2.102 0-1.243.86-2.198 2.007-2.198 1.051 0 1.911.955 1.911 2.198 0 1.146-.764 2.102-1.91 2.102zm20.45-9.27h-3.726v10.417h1.529v-3.918h2.198c1.72 0 3.44-1.243 3.44-3.25 0-2.006-1.72-3.249-3.44-3.249zm0 4.97h-2.197V10.13h2.198c1.147 0 1.816.955 1.816 1.815 0 .765-.67 1.72-1.816 1.72zm9.653-1.434c-1.147 0-2.294.478-2.772 1.625l1.338.573c.287-.573.86-.764 1.434-.764.764 0 1.624.477 1.624 1.337v.096c-.286-.191-.86-.382-1.624-.382-1.53 0-2.963.86-2.963 2.389 0 1.433 1.243 2.293 2.58 2.293 1.052 0 1.625-.477 2.007-1.05h.096v.764h1.529v-4.014c-.096-1.816-1.529-2.867-3.25-2.867zm-.191 5.734c-.478 0-1.243-.287-1.243-.86 0-.765.86-1.147 1.625-1.147.669 0 1.051.191 1.433.382-.095.86-.955 1.625-1.815 1.625zm8.792-5.543l-1.816 4.492h-.096l-1.815-4.492h-1.72l2.77 6.307-1.624 3.536h1.625l4.3-9.843h-1.624zm-14.048 6.69h1.529V8.696h-1.53v10.417z" fill="#fff"/><path d="M.478 0C.19.287 0 .765 0 1.338v21.12c0 .573.191 1.05.478 1.338l.095.095 11.85-11.85v-.191L.478 0z" transform="translate(9.46 7.167)" fill="url(#paint0_linear)"/><path d="M3.918 8.123L0 4.205V3.918L3.918 0l.096.096L8.696 2.77c1.338.765 1.338 2.007 0 2.772l-4.778 2.58z" transform="translate(21.884 15.098)" fill="url(#paint1_linear)"/><path d="M15.96 4.014L11.944 0 0 11.945c.478.478 1.147.478 2.007.096l13.952-8.027z" transform="translate(9.939 19.112)" fill="url(#paint2_linear)"/><path d="M15.96 8.246L2.006.314C1.147-.164.477-.068 0 .41l11.945 11.85 4.014-4.014z" transform="translate(9.939 6.852)" fill="url(#paint3_linear)"/><path d="M25.802 23.03l-13.857 7.837c-.764.477-1.433.382-1.911 0l-.096.095.096.096c.478.382 1.147.477 1.911 0l13.857-8.028z" fill="#000" opacity=".2"/><path d="M9.938 30.867c-.287-.287-.382-.765-.382-1.338v.095c0 .574.191 1.051.478 1.338v-.095h-.096zM30.58 20.354l-4.777 2.676.095.096 4.683-2.676c.669-.382.955-.86.955-1.338 0 .478-.382.86-.955 1.242z" fill="#000" opacity=".12"/><g opacity=".25"><path d="M11.945 7.262L30.58 17.87c.573.382.956.764.956 1.242 0-.478-.287-.956-.956-1.338L11.945 7.167c-1.338-.765-2.39-.096-2.39 1.433v.096c0-1.53 1.052-2.198 2.39-1.434z" fill="#fff"/></g><g><path d="M39.946 25.803c.573-.096 2.198-.192 3.727-.383.956-.095 1.72-.095 2.293-.19v.668c-.477 0-1.242 0-1.624.096-1.242.382-1.911 1.72-1.911 2.676 0 1.624 1.529 2.197 2.962 2.197l-.287.765c-1.529-.096-3.344-.956-3.344-2.771 0-1.338.764-2.39 1.624-2.867-.764.095-3.058.286-4.013.478l-.192-.574c.383 0 .574-.095.765-.095zm5.543 2.484l-.478.191c-.191-.382-.478-.86-.67-1.242l.479-.191c.19.287.477.86.669 1.242zm.955-.382l-.478.191a8.724 8.724 0 00-.764-1.242l.478-.191c.19.286.573.86.764 1.242z" fill="#fff"/><path d="M39.946 25.803c.573-.096 2.198-.192 3.727-.383.956-.095 1.72-.095 2.293-.19v.668c-.477 0-1.242 0-1.624.096-1.242.382-1.911 1.72-1.911 2.676 0 1.624 1.529 2.197 2.962 2.197l-.287.765c-1.529-.096-3.344-.956-3.344-2.771 0-1.338.764-2.39 1.624-2.867-.764.095-3.058.286-4.013.478l-.192-.574c.383 0 .574-.095.765-.095zm5.543 2.484l-.478.191c-.191-.382-.478-.86-.67-1.242l.479-.191c.19.287.477.86.669 1.242zm.955-.382l-.478.191a8.724 8.724 0 00-.764-1.242l.478-.191c.19.286.573.86.764 1.242z" stroke-width=".2" stroke-miterlimit="10" stroke="#fff"/><path d="M55.045 29.434H51.51v1.911c0 .478-.096.67-.478.765-.287.095-.86.095-1.816.095-.096-.19-.191-.478-.287-.669h1.625c.191 0 .287-.095.287-.286v-1.912h-3.536v-.669h3.536v-1.433h-2.963v-.478h2.963V25.42c-.956.096-1.912.191-2.772.191 0-.19-.095-.382-.19-.573 2.006-.096 4.49-.287 5.828-.765l.478.478c-.764.191-1.624.382-2.675.478v1.53h3.058v.572H51.51v1.434h3.535v.669z" fill="#fff"/><path d="M55.045 29.434H51.51v1.911c0 .478-.096.67-.478.765-.287.095-.86.095-1.816.095-.096-.19-.191-.478-.287-.669h1.625c.191 0 .287-.095.287-.286v-1.912h-3.536v-.669h3.536v-1.433h-2.963v-.478h2.963V25.42c-.956.096-1.912.191-2.772.191 0-.19-.095-.382-.19-.573 2.006-.096 4.49-.287 5.828-.765l.478.478c-.764.191-1.624.382-2.675.478v1.53h3.058v.572H51.51v1.434h3.535v.669z" stroke-width=".2" stroke-miterlimit="10" stroke="#fff"/><path d="M57.625 25.038c-.095.191-.095.382-.19.573-.192.765-.383 2.294-.383 3.25 0 .382 0 .764.095 1.146.192-.382.383-.86.478-1.242l.382.287a36.03 36.03 0 00-.573 1.911v.669h-.573c-.191-.573-.287-1.625-.287-2.771 0-1.243.287-2.676.382-3.44 0-.192.096-.383.096-.574l.573.191zm1.911 4.205c-.095.287-.095.573-.095.764 0 .383.287.765 1.433.765.765 0 1.434-.096 2.103-.191v.764c-.478.096-1.243.191-2.103.191-1.433 0-2.102-.477-2.102-1.242 0-.287.096-.669.096-1.051h.668zm-.286-3.536c.955.191 2.676.096 3.536 0v.669c-.956.095-2.58.095-3.536 0v-.669z" fill="#fff"/><path d="M57.625 25.038c-.095.191-.095.382-.19.573-.192.765-.383 2.294-.383 3.25 0 .382 0 .764.095 1.146.192-.382.383-.86.478-1.242l.382.287a36.03 36.03 0 00-.573 1.911v.669h-.573c-.191-.573-.287-1.625-.287-2.771 0-1.243.287-2.676.382-3.44 0-.192.096-.383.096-.574l.573.191zm1.911 4.205c-.095.287-.095.573-.095.764 0 .383.287.765 1.433.765.765 0 1.434-.096 2.103-.191v.764c-.478.096-1.243.191-2.103.191-1.433 0-2.102-.477-2.102-1.242 0-.287.096-.669.096-1.051h.668zm-.286-3.536c.955.191 2.676.096 3.536 0v.669c-.956.095-2.58.095-3.536 0v-.669z" stroke-width=".2" stroke-miterlimit="10" stroke="#fff"/><path d="M68.52 24.847c0 1.529.19 4.778 3.536 6.785-.192.096-.383.382-.478.573-2.103-1.242-3.058-3.153-3.44-4.778-.67 2.198-1.72 3.823-3.44 4.778-.096-.095-.383-.382-.574-.477 1.911-.956 2.962-2.676 3.44-5.16l.382.095c0-.478-.095-.86-.095-1.147h-2.103v-.67h2.772z" fill="#fff"/><path d="M68.52 24.847c0 1.529.19 4.778 3.536 6.785-.192.096-.383.382-.478.573-2.103-1.242-3.058-3.153-3.44-4.778-.67 2.198-1.72 3.823-3.44 4.778-.096-.095-.383-.382-.574-.477 1.911-.956 2.962-2.676 3.44-5.16l.382.095c0-.478-.095-.86-.095-1.147h-2.103v-.67h2.772z" stroke-width=".2" stroke-miterlimit="10" stroke="#fff"/><g><path d="M80.465 30.867c-.478.478-.956.67-1.53.67-.573 0-.955-.383-.955-1.052 0-.956.287-2.39.287-3.154 0-.477-.287-.669-.67-.669-.668 0-1.72.765-2.484 1.625V31.823h-.764v-.478-2.198-.287c-.383.67-.956 1.434-1.338 2.007l-.383-.669c.478-.573 1.434-1.91 1.912-2.58 0-.287 0-.573.095-.86-.382 0-1.147.191-1.624.191l-.096-.669h.573c.287 0 .765-.095 1.243-.095v-.765-.669h.86c0 .191-.096.67-.191 1.243l.286.286c-.095.191-.286.382-.382.574v.477c.67-.573 1.72-1.433 2.58-1.433.765 0 1.243.478 1.243 1.147 0 .86-.287 2.293-.287 3.153 0 .287.096.478.478.478s.86-.287 1.242-.669l-.095.86z" fill="#fff"/><path d="M80.465 30.867c-.478.478-.956.67-1.53.67-.573 0-.955-.383-.955-1.052 0-.956.287-2.39.287-3.154 0-.477-.287-.669-.67-.669-.668 0-1.72.765-2.484 1.625V31.823h-.764v-.478-2.198-.287c-.383.67-.956 1.434-1.338 2.007l-.383-.669c.478-.573 1.434-1.91 1.912-2.58 0-.287 0-.573.095-.86-.382 0-1.147.191-1.624.191l-.096-.669h.573c.287 0 .765-.095 1.243-.095v-.765-.669h.86c0 .191-.096.67-.191 1.243l.286.286c-.095.191-.286.382-.382.574v.477c.67-.573 1.72-1.433 2.58-1.433.765 0 1.243.478 1.243 1.147 0 .86-.287 2.293-.287 3.153 0 .287.096.478.478.478s.86-.287 1.242-.669l-.095.86z" stroke-width=".2" stroke-miterlimit="10" stroke="#fff"/></g><g><path d="M85.244 27.236c0 .573 0 1.338.095 2.102 1.051.287 2.007.86 2.676 1.434l-.382.669c-.574-.574-1.338-1.051-2.198-1.434v.574c0 .669-.478 1.338-1.53 1.338-1.146 0-2.006-.383-2.006-1.338 0-.765.669-1.434 2.102-1.434.287 0 .478 0 .765.096 0-.67-.096-1.434-.096-2.007v-1.529c0-.287 0-.669-.095-.86h.86c0 .191-.096.573-.096.86v.86c.67 0 1.72-.096 2.485-.191v.669c-.765 0-1.911.095-2.58.191zm-.574 2.58c-.286-.095-.573-.095-.86-.095-.86 0-1.338.286-1.338.764 0 .478.478.765 1.338.765.67 0 .956-.287.956-.86-.096-.192-.096-.383-.096-.574z" fill="#fff"/><path d="M85.244 27.236c0 .573 0 1.338.095 2.102 1.051.287 2.007.86 2.676 1.434l-.382.669c-.574-.574-1.338-1.051-2.198-1.434v.574c0 .669-.478 1.338-1.53 1.338-1.146 0-2.006-.383-2.006-1.338 0-.765.669-1.434 2.102-1.434.287 0 .478 0 .765.096 0-.67-.096-1.434-.096-2.007v-1.529c0-.287 0-.669-.095-.86h.86c0 .191-.096.573-.096.86v.86c.67 0 1.72-.096 2.485-.191v.669c-.765 0-1.911.095-2.58.191zm-.574 2.58c-.286-.095-.573-.095-.86-.095-.86 0-1.338.286-1.338.764 0 .478.478.765 1.338.765.67 0 .956-.287.956-.86-.096-.192-.096-.383-.096-.574z" stroke-width=".2" stroke-miterlimit="10" stroke="#fff"/></g><g><path d="M93.08 27.427c-.956 0-1.816.287-2.294.478-.287.096-.478.191-.669.287l-.191-.765c.191 0 .478-.095.765-.095.573-.096 1.529-.383 2.58-.383 1.242 0 2.102.67 2.102 1.912 0 1.815-1.624 2.867-3.822 3.249l-.383-.67c2.103-.286 3.536-1.05 3.536-2.58-.19-.955-.764-1.433-1.624-1.433zm1.529-2.198l-.096.67c-.956-.096-2.676-.192-3.631-.383l.095-.67c.956.192 2.772.383 3.632.383z" fill="#fff"/><path d="M93.08 27.427c-.956 0-1.816.287-2.294.478-.287.096-.478.191-.669.287l-.191-.765c.191 0 .478-.095.765-.095.573-.096 1.529-.383 2.58-.383 1.242 0 2.102.67 2.102 1.912 0 1.815-1.624 2.867-3.822 3.249l-.383-.67c2.103-.286 3.536-1.05 3.536-2.58-.19-.955-.764-1.433-1.624-1.433zm1.529-2.198l-.096.67c-.956-.096-2.676-.192-3.631-.383l.095-.67c.956.192 2.772.383 3.632.383z" stroke-width=".2" stroke-miterlimit="10" stroke="#fff"/></g></g></g><defs><linearGradient id="paint0_linear" x2="1" gradientUnits="userSpaceOnUse" gradientTransform="scale(-22.681 22.681) rotate(45 .291 -.33)"><stop stop-color="#00A0FF"/><stop offset=".007" stop-color="#00A1FF"/><stop offset=".26" stop-color="#00BEFF"/><stop offset=".512" stop-color="#00D2FF"/><stop offset=".76" stop-color="#00DFFF"/><stop offset="1" stop-color="#00E3FF"/></linearGradient><linearGradient id="paint1_linear" x2="1" gradientUnits="userSpaceOnUse" gradientTransform="matrix(-23.1235 0 0 23.1235 10.45 -7.547)"><stop stop-color="#FFE000"/><stop offset=".409" stop-color="#FFBD00"/><stop offset=".775" stop-color="orange"/><stop offset="1" stop-color="#FF9C00"/></linearGradient><linearGradient id="paint2_linear" x2="1" gradientUnits="userSpaceOnUse" gradientTransform="scale(-30.7574 30.7574) rotate(45 .293 -.255)"><stop stop-color="#FF3A44"/><stop offset="1" stop-color="#C31162"/></linearGradient><linearGradient id="paint3_linear" x2="1" gradientUnits="userSpaceOnUse" gradientTransform="matrix(9.7118 9.7117 9.7117 -9.71179 -7.82 -1.829)"><stop stop-color="#32A071"/><stop offset=".069" stop-color="#2DA771"/><stop offset=".476" stop-color="#15CF74"/><stop offset=".801" stop-color="#06E775"/><stop offset="1" stop-color="#00F076"/></linearGradient></defs></svg>