<svg width="106" height="38" xmlns="http://www.w3.org/2000/svg"><g fill="none"><path d="M96.315 0H9.246c-.356 0-.707 0-1.062.002-.296.002-.591.007-.89.012-.652.007-1.302.064-1.944.168a6.557 6.557 0 00-1.843.595 6.24 6.24 0 00-1.57 1.12c-.463.45-.849.97-1.142 1.54a6.182 6.182 0 00-.607 1.808 12.1 12.1 0 00-.173 1.902c-.01.292-.01.584-.015.875v21.959c.005.295.006.58.015.875.007.638.065 1.274.173 1.902.107.63.312 1.24.607 1.81.293.568.68 1.086 1.142 1.533.459.453.989.831 1.57 1.12.58.289 1.201.49 1.843.599.643.103 1.292.16 1.943.168.3.006.595.01.891.01C8.54 38 8.89 38 9.246 38h87.069c.348 0 .702 0 1.051-.002.295 0 .599-.004.894-.01.65-.008 1.298-.064 1.939-.168a6.692 6.692 0 001.851-.6 6.086 6.086 0 001.568-1.119c.462-.45.848-.967 1.146-1.534.293-.57.495-1.18.6-1.809.108-.628.169-1.264.18-1.902.004-.295.004-.58.004-.875.008-.346.008-.689.008-1.04V9.06c0-.348 0-.693-.008-1.037 0-.291 0-.583-.004-.875a12.51 12.51 0 00-.18-1.902 6.201 6.201 0 00-.6-1.808 6.212 6.212 0 00-2.714-2.66 6.657 6.657 0 00-1.851-.595c-.64-.105-1.29-.161-1.94-.168-.294-.005-.598-.01-.893-.012C97.017 0 96.663 0 96.315 0z" fill="#A6A6A6"/><path d="M8.188 37.169c-.295 0-.584-.004-.877-.01a12.545 12.545 0 01-1.812-.155 5.79 5.79 0 01-1.607-.52 5.24 5.24 0 01-1.354-.966 5.06 5.06 0 01-.99-1.327 5.359 5.359 0 01-.527-1.574 11.56 11.56 0 01-.161-1.782c-.006-.2-.014-.867-.014-.867V8.022s.008-.656.014-.85c.007-.595.061-1.19.16-1.778a5.39 5.39 0 01.527-1.579 5.11 5.11 0 01.985-1.328c.399-.391.857-.72 1.36-.971A5.73 5.73 0 015.495.999C6.096.903 6.705.851 7.314.843l.875-.011H97.36l.886.012c.604.007 1.206.058 1.802.154.563.094 1.11.27 1.62.52a5.364 5.364 0 012.342 2.3c.253.493.428 1.021.519 1.566.1.593.157 1.192.169 1.793.003.269.003.558.003.845.007.357.007.696.007 1.038v19.882c0 .345 0 .682-.007 1.021 0 .31 0 .592-.004.884-.011.59-.067 1.178-.166 1.76a5.375 5.375 0 01-.523 1.587 5.222 5.222 0 01-.985 1.316 5.254 5.254 0 01-1.357.972 5.777 5.777 0 01-1.618.522c-.6.096-1.205.148-1.813.155-.284.006-.581.01-.87.01l-1.051.002-88.126-.002z" fill="#000"/><path fill-rule="evenodd" clip-rule="evenodd" d="M36.28 15.728h3.845l.923 2.73h1.656L39.062 8.358H37.37l-3.642 10.098h1.629l.923-2.73zm3.446-1.26h-3.048l1.503-4.43h.042l1.503 4.43zM47.5 18.533c1.847 0 3.07-1.47 3.07-3.758 0-2.281-1.23-3.758-3.097-3.758a2.608 2.608 0 00-2.342 1.301h-.028v-1.224h-1.46v9.797h1.509v-3.646h.035a2.493 2.493 0 002.314 1.288zm-.426-6.228c1.174 0 1.944.98 1.944 2.47 0 1.504-.77 2.477-1.944 2.477-1.153 0-1.929-.993-1.929-2.476 0-1.47.776-2.471 1.93-2.471zM55.595 18.533c1.846 0 3.07-1.47 3.07-3.758 0-2.281-1.23-3.758-3.098-3.758a2.608 2.608 0 00-2.341 1.301h-.028v-1.224h-1.461v9.797h1.51v-3.646h.034a2.493 2.493 0 002.314 1.288zm-.426-6.228c1.174 0 1.943.98 1.943 2.47 0 1.504-.77 2.477-1.943 2.477-1.154 0-1.93-.993-1.93-2.476 0-1.47.776-2.471 1.93-2.471z" fill="#fff"/><path d="M64.014 15.643c.112 1 1.083 1.658 2.411 1.658 1.273 0 2.188-.657 2.188-1.56 0-.784-.552-1.253-1.86-1.575l-1.306-.315c-1.853-.448-2.713-1.315-2.713-2.722 0-1.742 1.517-2.94 3.67-2.94 2.132 0 3.594 1.198 3.643 2.94h-1.524c-.091-1.008-.924-1.616-2.14-1.616-1.216 0-2.048.615-2.048 1.511 0 .714.532 1.134 1.832 1.456l1.111.273c2.07.49 2.929 1.322 2.929 2.8 0 1.888-1.502 3.071-3.893 3.071-2.237 0-3.748-1.155-3.845-2.981h1.545zM73.467 9.351v1.743h1.399v1.196h-1.399v4.059c0 .63.28.924.895.924.166-.003.332-.014.497-.035v1.19a4.142 4.142 0 01-.839.07c-1.489 0-2.07-.56-2.07-1.988v-4.22h-1.069v-1.196h1.07V9.35h1.516z" fill="#fff"/><path fill-rule="evenodd" clip-rule="evenodd" d="M79.162 11.004c-2.125 0-3.488 1.455-3.488 3.772 0 2.323 1.35 3.772 3.488 3.772 2.14 0 3.49-1.45 3.49-3.772 0-2.317-1.357-3.772-3.49-3.772zm0 1.245c1.224 0 1.951.938 1.951 2.527 0 1.595-.727 2.526-1.95 2.526-1.224 0-1.951-.931-1.951-2.526 0-1.582.727-2.527 1.95-2.527z" fill="#fff"/><path d="M83.897 11.094h1.44v1.253h.034c.201-.807.94-1.362 1.77-1.33.173 0 .347.018.516.056v1.414a2.108 2.108 0 00-.678-.092 1.52 1.52 0 00-1.573 1.694v4.367h-1.51v-7.362z" fill="#fff"/><path fill-rule="evenodd" clip-rule="evenodd" d="M91.45 18.548a2.952 2.952 0 003.167-2.254h-1.433a1.664 1.664 0 01-1.699 1.036 1.914 1.914 0 01-1.978-2.086v-.09H94.7v-.519c0-2.232-1.28-3.631-3.314-3.631-2.069 0-3.404 1.497-3.404 3.807 0 2.302 1.328 3.737 3.467 3.737zm1.742-4.451h-3.677a1.865 1.865 0 011.873-1.868 1.768 1.768 0 011.804 1.868z" fill="#fff"/><g><path fill-rule="evenodd" clip-rule="evenodd" d="M35.698 28.492l-.063.779c.375.092.759.14 1.144.143.44.042.863-.183 1.072-.573.39-.829.568-1.741.518-2.656 0-1.199-.545-1.762-1.68-1.762h-.348c.125-.536.223-1.082.304-1.628l-.876-.098c-.06.604-.152 1.204-.277 1.798-.607.054-1.26.143-1.804.24l.16.789c.48-.109.967-.19 1.456-.242-.31 1.23-.84 2.393-1.563 3.434l.742.403a13.055 13.055 0 001.68-3.917l.053-.003c.157-.008.3-.016.429-.016.635 0 .884.233.884 1.038a4.342 4.342 0 01-.41 2.2c-.135.188-.242.215-.519.215a2.97 2.97 0 01-.902-.144zm3.467-4.48l-.653.438a4.18 4.18 0 011.323 3.005l.857-.133a5.036 5.036 0 00-1.527-3.31zM43.048 22.67l-.224.787a20.03 20.03 0 013.52.796l.215-.778a24.563 24.563 0 00-3.511-.805zm.43 5.92l.177.806c.074 0 .156.002.233.005.072.002.14.004.196.004 2.404 0 3.405-.779 3.405-2.049 0-1.001-.742-1.618-1.94-1.618a4.57 4.57 0 00-2.439.832 3.508 3.508 0 01.68-2.326l-.796-.259c-.622 1-.89 2.182-.76 3.354l.689.304a3.831 3.831 0 012.448-1.198c.858 0 1.242.34 1.242.93 0 .742-.67 1.242-2.44 1.242-.178 0-.473-.008-.696-.027zM55.47 22.205l-.508.241c.247.348.449.727.598 1.128l.563-.242a6.02 6.02 0 00-.652-1.127zm-1.625.332l.5-.242c.255.34.468.71.635 1.1l-.563.26a4.873 4.873 0 00-.572-1.118zm-3.77 6.242a5.641 5.641 0 002.404-1.557 10.147 10.147 0 00-1.67-1.126l.49-.617c.598.304 1.166.664 1.698 1.073a5.659 5.659 0 00.876-2.066h-2.279a9.213 9.213 0 01-1.948 2.245l-.652-.563a8.477 8.477 0 002.484-3.417l.858.206-.037.094a9.53 9.53 0 01-.276.657h2.216l.635.295a6.783 6.783 0 01-4.28 5.474l-.519-.698z" fill="#fff"/><path d="M58.872 29.44l-.456-.724a3.746 3.746 0 003.145-3.944H57.81v1.798h-.903v-2.559h2.243v-1.314h.902v1.314h1.671l.822.233c-.107 2.54-.956 4.481-3.672 5.197z" fill="#fff"/><path fill-rule="evenodd" clip-rule="evenodd" d="M64.783 23.34l-.5.734c.76.37 1.475.829 2.126 1.369l.572-.77a11.085 11.085 0 00-2.198-1.332zm4.825 1.422a6.946 6.946 0 01-5.156 3.722l.34.831a7.558 7.558 0 005.405-3.89l-.59-.663zM71.9 28.913h5.62v-5.322H71.9v5.322zm.885-.823v-3.676h3.842v3.676h-3.842z" fill="#fff"/><path d="M85.566 26.524H79.25v-.912h6.317v.913z" fill="#fff"/><path fill-rule="evenodd" clip-rule="evenodd" d="M91.37 22.571l-.538.25c.257.383.467.794.626 1.226l.581-.26a5.805 5.805 0 00-.67-1.216zm-3.655.153h.885v2.29a27.545 27.545 0 013.413 1.708l-.5.787a21.573 21.573 0 00-2.913-1.565v3.452h-.885v-6.672zm2.099.482l.527-.25c.258.379.471.787.635 1.216l-.581.26a5.246 5.246 0 00-.581-1.226z" fill="#fff"/></g><g><path d="M24.562 19.286c.02-1.612.865-3.1 2.236-3.945a4.806 4.806 0 00-3.787-2.05c-1.594-.167-3.139.955-3.951.955-.828 0-2.078-.938-3.425-.91a5.044 5.044 0 00-4.245 2.591c-1.835 3.181-.466 7.856 1.292 10.428.88 1.259 1.908 2.665 3.253 2.615 1.317-.054 1.808-.84 3.397-.84 1.574 0 2.036.84 3.408.809 1.413-.024 2.303-1.265 3.151-2.536a10.419 10.419 0 001.441-2.938 4.543 4.543 0 01-2.77-4.18zM21.97 11.6a4.632 4.632 0 001.057-3.315 4.703 4.703 0 00-3.044 1.576 4.407 4.407 0 00-1.086 3.194A3.889 3.889 0 0021.97 11.6z" fill="#fff"/></g></g></svg>