<svg xmlns="http://www.w3.org/2000/svg" viewBox="0 0 180.97 240"><g data-name="レイヤー 2"><path d="M71.06 240c-8.78-.56-21.06-3-34.59-7-12.43-3.64-29-10-29.12-23.2-.1-9.46 5.38-17.56 16.76-24.78A159.38 159.38 0 0140 176.58c4.9-2.25 14.67-6.51 22.08-9.28V49.74L18.09 45v126.54c0 5-4.06 8.35-9 8.35s-9-3.36-9-8.35V34.9a9 9 0 019-9c.32 0 .65 0 1 .05l62.09 6.72a9 9 0 018.07 9v118.3c8.54-3.47 16.81-7 24-10.29 22.51-10.29 37.74-20.86 46.53-32.3 10.56-13.75 12.17-30.76 11.67-42.62a62.75 62.75 0 00-12.54-35.15c-4.13-5.67-11.77-13.25-21-17.26a62.63 62.63 0 00-16.65-4.86c-6.1-.81-9-5.1-8.63-9.37s3.82-7.56 8.85-7.98c8.63-.72 15 1.46 23.76 5.35 16.87 7.51 27.47 21.63 28.62 23.21a81.62 81.62 0 0116 45.24c.55 12.83-1 24.19-4.84 34.73a73.88 73.88 0 01-10.88 19.68C149.28 149 121.2 161.75 112 165.94c-8.67 3.95-28 12-31.8 13.52V231a9.06 9.06 0 01-3.1 6.82 9.24 9.24 0 01-5.68 2.18zm-9-53.2c-5.52 2-14 5.11-17.19 6.59-3 1.4-12.17 5.66-16.13 9.11-1 .86-4.16 3.86-3.37 6.29.72 2.23 4.46 3.74 19 7.67 5.17 1.39 11.25 2.73 17.65 3.88z" fill="#380953" data-name="レイヤー 1"/></g></svg>