<svg width="24" height="20" fill="none" xmlns="http://www.w3.org/2000/svg"><path d="M21.516 5.052A10.85 10.85 0 0024 2.474c-.938.422-1.875.703-2.813.797 1.032-.656 1.782-1.547 2.157-2.719-.985.563-2.016.985-3.14 1.172A5.676 5.676 0 0018.561.6a4.64 4.64 0 00-1.968-.422c-.89 0-1.688.235-2.438.656-.75.47-1.36 1.079-1.781 1.829-.469.75-.656 1.593-.656 2.437 0 .375 0 .75.094 1.125-2.016-.094-3.891-.562-5.672-1.5-1.782-.89-3.235-2.11-4.454-3.656-.468.797-.703 1.64-.703 2.484 0 .844.188 1.64.61 2.344.375.75.937 1.313 1.593 1.781a4.046 4.046 0 01-2.203-.656v.094a4.66 4.66 0 001.125 3.094c.75.937 1.688 1.5 2.813 1.734-.469.094-.89.14-1.313.14-.28 0-.609 0-.89-.046.281.984.844 1.78 1.687 2.437.844.656 1.782.938 2.907.938-1.829 1.406-3.891 2.109-6.141 2.109-.469 0-.844 0-1.172-.047 2.25 1.5 4.781 2.203 7.547 2.203 2.86 0 5.39-.703 7.64-2.203a13.294 13.294 0 004.735-5.297c1.078-2.062 1.64-4.265 1.64-6.515 0-.282-.046-.47-.046-.61z" fill="#1DA1F2"/></svg>